<svg width="288" height="57" viewBox="0 0 288 57" fill="none" xmlns="http://www.w3.org/2000/svg">
<path d="M0 56.256V13.632H5.056V19.2C5.99467 17.28 7.38133 15.7867 9.216 14.72C11.0933 13.6107 13.2693 13.056 15.744 13.056C18.5173 13.056 20.928 13.7173 22.976 15.04C25.0667 16.32 26.6667 18.176 27.776 20.608C28.928 22.9973 29.504 25.856 29.504 29.184C29.504 32.4693 28.928 35.328 27.776 37.76C26.6667 40.1493 25.0667 42.0053 22.976 43.328C20.928 44.6507 18.5173 45.312 15.744 45.312C13.3547 45.312 11.2213 44.7787 9.344 43.712C7.46667 42.6453 6.08 41.1733 5.184 39.296V56.256H0ZM14.656 41.152C17.5573 41.152 19.8827 40.128 21.632 38.08C23.3813 35.9893 24.256 33.024 24.256 29.184C24.256 25.3013 23.3813 22.336 21.632 20.288C19.8827 18.24 17.5573 17.216 14.656 17.216C11.7547 17.216 9.42933 18.24 7.68 20.288C5.93067 22.336 5.056 25.3013 5.056 29.184C5.056 33.024 5.93067 35.9893 7.68 38.08C9.42933 40.128 11.7547 41.152 14.656 41.152Z" fill="black"/>
<path d="M44.6725 45.696C42.5392 45.696 40.6192 45.2907 38.9125 44.48C37.2485 43.6267 35.9258 42.4747 34.9445 41.024C33.9632 39.5733 33.4725 37.952 33.4725 36.16C33.4725 33.8987 34.0485 32.1067 35.2005 30.784C36.3952 29.4613 38.3365 28.5227 41.0245 27.968C43.7552 27.3707 47.4672 27.072 52.1605 27.072H54.2085V25.088C54.2085 22.4427 53.6538 20.544 52.5445 19.392C51.4778 18.1973 49.7498 17.6 47.3605 17.6C45.4832 17.6 43.6698 17.8773 41.9205 18.432C40.1712 18.944 38.3792 19.7973 36.5445 20.992L34.7525 17.216C36.3738 16.064 38.3365 15.1467 40.6405 14.464C42.9872 13.7813 45.2272 13.44 47.3605 13.44C51.3712 13.44 54.3365 14.4213 56.2565 16.384C58.2192 18.3467 59.2005 21.3973 59.2005 25.536V45.12H54.3365V39.744C53.5258 41.5787 52.2672 43.0293 50.5605 44.096C48.8965 45.1627 46.9338 45.696 44.6725 45.696ZM45.5045 41.792C48.0645 41.792 50.1552 40.9173 51.7765 39.168C53.3978 37.376 54.2085 35.1147 54.2085 32.384V30.464H52.2245C48.7685 30.464 46.0378 30.6347 44.0325 30.976C42.0698 31.2747 40.6832 31.8293 39.8725 32.64C39.1045 33.408 38.7205 34.4747 38.7205 35.84C38.7205 37.5893 39.3178 39.0187 40.5125 40.128C41.7498 41.2373 43.4138 41.792 45.5045 41.792Z" fill="black"/>
<path d="M74.5734 45.696C70.9041 45.696 68.1521 44.736 66.3174 42.816C64.4827 40.8533 63.5654 38.0373 63.5654 34.368V18.048V14.016V4.48L68.7494 0V14.016H78.6054V18.048H68.7494V33.856C68.7494 36.288 69.2614 38.144 70.2854 39.424C71.3094 40.6613 72.9734 41.28 75.2774 41.28C75.9601 41.28 76.6427 41.1947 77.3254 41.024C78.0081 40.8533 78.6267 40.6827 79.1814 40.512L80.0774 44.48C79.5227 44.7787 78.7121 45.056 77.6454 45.312C76.5787 45.568 75.5547 45.696 74.5734 45.696Z" fill="black"/>
<path d="M86.1 45.312V14.208H91.156V19.776C92.82 16.0213 96.2333 13.952 101.396 13.568L103.252 13.376L103.636 17.856L100.372 18.24C97.428 18.496 95.188 19.4347 93.652 21.056C92.116 22.6347 91.348 24.8107 91.348 27.584V45.312H86.1Z" fill="black"/>
<path d="M108.952 45.312V14.208H114.136V45.312H108.952Z" fill="black"/>
<path d="M134.574 45.504C131.459 45.504 128.771 44.8427 126.509 43.52C124.248 42.1547 122.499 40.256 121.261 37.824C120.067 35.3493 119.469 32.4693 119.469 29.184C119.469 24.2347 120.813 20.352 123.501 17.536C126.189 14.6773 129.88 13.248 134.574 13.248C136.494 13.248 138.392 13.5893 140.27 14.272C142.147 14.9547 143.704 15.9147 144.941 17.152L143.149 20.928C141.912 19.7333 140.547 18.8587 139.053 18.304C137.603 17.7493 136.216 17.472 134.893 17.472C131.651 17.472 129.155 18.496 127.406 20.544C125.656 22.5493 124.781 25.4507 124.781 29.248C124.781 32.96 125.656 35.904 127.406 38.08C129.155 40.2133 131.651 41.28 134.893 41.28C136.216 41.28 137.603 41.0027 139.053 40.448C140.547 39.8933 141.912 38.9973 143.149 37.76L144.941 41.536C143.704 42.7733 142.125 43.7547 140.205 44.48C138.328 45.1627 136.451 45.504 134.574 45.504Z" fill="black"/>
<path d="M149.136 45.312V4.67199L154.32 0.191986V28.032H154.448L168.848 14.208H175.44L159.824 29.184L176.784 45.312H170.192L154.448 30.72H154.32V45.312H149.136Z" fill="black"/>
<path d="M108.952 8V4.67199L114.136 0.191986V8H108.952Z" fill="black"/>
<path d="M189 4.48L194.048 0V45.12H189V4.48Z" fill="black" fill-opacity="0.25"/>
<path d="M201.364 7.80802V4.48001L206.548 7.62939e-06V7.80802H201.364Z" fill="black" fill-opacity="0.25"/>
<path d="M201.364 45.12V14.016H206.548V45.12H201.364Z" fill="black" fill-opacity="0.25"/>
<path d="M212.556 45.12V14.016H217.612V19.264C218.551 17.3867 219.852 15.9573 221.516 14.976C223.18 13.952 225.121 13.44 227.34 13.44C232.204 13.44 235.319 15.552 236.684 19.776C237.623 17.8133 239.009 16.2773 240.844 15.168C242.679 14.016 244.791 13.44 247.18 13.44C254.092 13.44 257.548 17.536 257.548 25.728V45.12H252.364V25.984C252.364 23.1253 251.852 21.0347 250.828 19.712C249.847 18.3467 248.204 17.664 245.9 17.664C243.383 17.664 241.377 18.56 239.884 20.352C238.391 22.144 237.644 24.5333 237.644 27.52V45.12H232.46V25.984C232.46 23.1253 231.948 21.0347 230.924 19.712C229.943 18.3467 228.3 17.664 225.996 17.664C223.436 17.664 221.409 18.56 219.916 20.352C218.465 22.144 217.74 24.5333 217.74 27.52V45.12H212.556Z" fill="black" fill-opacity="0.25"/>
<path fill-rule="evenodd" clip-rule="evenodd" d="M272.52 45.696C270.387 45.696 268.467 45.2907 266.76 44.48C265.096 43.6267 263.773 42.4747 262.792 41.024C261.811 39.5733 261.32 37.952 261.32 36.16C261.32 33.8987 261.896 32.1067 263.048 30.784C264.243 29.4613 266.184 28.5227 268.872 27.968C271.603 27.3707 275.315 27.072 280.008 27.072H282.056V25.088C282.056 22.4427 281.501 20.544 280.392 19.392C279.325 18.1973 277.597 17.6 275.208 17.6C273.331 17.6 271.517 17.8773 269.768 18.432C268.019 18.944 266.227 19.7973 264.392 20.992L262.6 17.216C264.221 16.064 266.184 15.1467 268.488 14.464C270.835 13.7813 273.075 13.44 275.208 13.44C279.219 13.44 282.184 14.4213 284.104 16.384C286.067 18.3467 287.048 21.3973 287.048 25.536V45.12H282.184V39.744C281.373 41.5787 280.115 43.0293 278.408 44.096C276.744 45.1627 274.781 45.696 272.52 45.696ZM279.624 39.168C278.003 40.9173 275.912 41.792 273.352 41.792C271.261 41.792 269.597 41.2373 268.36 40.128C267.165 39.0187 266.568 37.5893 266.568 35.84C266.568 34.4747 266.952 33.408 267.72 32.64C268.531 31.8293 269.917 31.2747 271.88 30.976C273.885 30.6347 276.616 30.464 280.072 30.464H282.056V32.384C282.056 35.1147 281.245 37.376 279.624 39.168Z" fill="black" fill-opacity="0.25"/>
</svg>
